<?xml version="1.0" standalone="no"?><!DOCTYPE svg PUBLIC "-//W3C//DTD SVG 1.1//EN" "http://www.w3.org/Graphics/SVG/1.1/DTD/svg11.dtd"><svg t="1713209314762" class="icon" viewBox="0 0 1024 1024" version="1.1" xmlns="http://www.w3.org/2000/svg" p-id="9467" xmlns:xlink="http://www.w3.org/1999/xlink" width="32" height="32"><path d="M896.768 664.832v-238.08a52.608 52.608 0 0 0-35.2-49.024l-78.72-21.248-114.816 234.24S549.44 293.44 549.44 290.688L425.408 257.28c-5.568-1.92-12.096-1.92-17.6-1.92a60.48 60.48 0 0 0-61.12 61.248v354.688c0 31.36 25.92 57.344 57.408 57.344h5.568l49.024-3.712H455.04V351.808l146.304 356.48 108.352-10.112 139.84-274.176v199.168c0 71.296-52.736 130.56-125.952 139.776l-350.976 31.488h-8.32c-59.264 0-106.496-47.168-106.496-104.576V328.64c0-39.808-1.856-75.008 25.92-108.288 21.312-27.84 57.408-41.728 90.752-41.728 12.032 0 24.064 1.92 35.2 5.568l403.712 112h5.568a21.504 21.504 0 0 0 21.312-21.248c0-10.24-5.568-17.6-15.744-19.456L392.064 138.816A191.36 191.36 0 0 0 322.56 126.72c-108.288 0-195.328 85.12-195.328 188.928v406.4c0 96.384 80.512 175.168 179.584 175.168h15.744l392.704-37.12c104.64-9.216 181.504-94.4 181.504-195.328" fill="#F06000" p-id="9468"></path></svg>