<?xml version="1.0" standalone="no"?><!DOCTYPE svg PUBLIC "-//W3C//DTD SVG 1.1//EN" "http://www.w3.org/Graphics/SVG/1.1/DTD/svg11.dtd"><svg t="1713287700347" class="icon" viewBox="0 0 1024 1024" version="1.1" xmlns="http://www.w3.org/2000/svg" p-id="3343" xmlns:xlink="http://www.w3.org/1999/xlink" width="32" height="32"><path d="M0 0m160 0l704 0q160 0 160 160l0 704q0 160-160 160l-704 0q-160 0-160-160l0-704q0-160 160-160Z" fill="#FFFFFF" p-id="3344"></path><path d="M412.992 128.896a407.968 407.968 0 0 0-297.6 355.84c-8.256 84.032 14.624 116.16 104.096 146.272a253.216 253.216 0 0 1 167.424 151.424c32.192 92.32 35.2 97.568 72.832 115.2 32.192 15.52 46.752 15.52 105.024 6.208a395.68 395.68 0 0 0 27.008-780.064 327.584 327.584 0 0 0-178.848 5.12z m141.44 257.376c126.848 59.168 161.216 126.528 95.68 189.824-82.144 77.76-192.384 108.8-232.96 64.288-16.672-18.656-19.808-38.4-19.808-128.576s3.2-110.016 19.808-128.672c25.984-29.024 70.72-28 137.28 3.2z" fill="#FE163E" p-id="3345"></path></svg>