<?xml version="1.0" standalone="no"?><!DOCTYPE svg PUBLIC "-//W3C//DTD SVG 1.1//EN" "http://www.w3.org/Graphics/SVG/1.1/DTD/svg11.dtd"><svg t="1714297046537" class="icon" viewBox="0 0 1024 1024" version="1.1" xmlns="http://www.w3.org/2000/svg" p-id="7686" xmlns:xlink="http://www.w3.org/1999/xlink" width="200" height="200"><path d="M486.40896 1024a102.4 102.4 0 1 1 0-204.8 102.4 102.4 0 0 1 0 204.8z m325.376-635.904c-22.272 35.9424-69.4272 84.7872-141.824 146.7392-37.4784 31.9488-60.7744 57.7536-69.7856 77.312-9.0112 19.456-13.312 54.3232-12.3904 104.6528H426.35136c-0.3584-23.808-0.7168-38.3488-0.7168-43.5712 0-53.76 8.704-97.8944 25.9584-132.608 17.3056-34.6624 51.9168-73.728 103.68-116.9408 51.7632-43.4176 82.8416-71.7312 92.928-85.1456 15.5648-21.248 23.5008-44.6976 23.5008-70.144 0-35.3792-13.9776-65.7408-41.472-91.136-27.5968-25.2416-65.024-37.9904-111.872-37.9904-45.2096 0-82.9952 13.312-113.3568 39.6288-30.4128 26.3168-56.576 84.48-62.72 120.3712-5.8368 33.9968-165.0176 48.3328-163.072-20.48 1.9456-68.864 36.7616-143.4624 96.4608-197.632C335.36896 27.136 413.80736 0 510.78016 0c102.0928 0 183.1936 27.4432 243.6096 82.2784C814.80576 137.0624 844.80896 200.8576 844.80896 273.664a213.504 213.504 0 0 1-33.024 114.432z" fill="#ffffff" p-id="7687" data-spm-anchor-id="a313x.search_index.0.i20.4bca3a81XQVnm8" class="selected"></path></svg>